<svg xmlns="http://www.w3.org/2000/svg" viewBox="0 0 329.29 86.06"><defs><style>.cls-1{font-size:78.5px;letter-spacing:0.05em;}.cls-1,.cls-2,.cls-3{fill:#eace92;font-family:TsangerQingYa-F;}.cls-2{font-size:31.57px;}.cls-3{font-size:25.79px;letter-spacing:0.03em;}.cls-4{opacity:0.76;}.cls-5{fill:#fff;}.cls-6{opacity:0.61;}.cls-7{opacity:0.59;}.cls-8{opacity:0.45;}</style></defs><g id="图层_2" data-name="图层 2"><g id="图层_1-2" data-name="图层 1"><text class="cls-1" transform="translate(17.02 71.46)">机联旧档</text><text class="cls-2" transform="translate(218.32 34.84)">机联会刊广告</text><text class="cls-3" transform="translate(218.62 74.05)">数字化视觉实录</text><g class="cls-4"><line y1="4.34" x2="329.29" y2="4.34"/><polygon class="cls-5" points="0 4.34 82.32 4.15 164.65 4.05 246.97 4.15 288.13 4.2 329.29 4.34 288.13 4.48 246.97 4.53 164.65 4.63 82.32 4.53 0 4.34"/></g><g class="cls-4"><line y1="79.07" x2="329.29" y2="79.07"/><polygon class="cls-5" points="0 79.07 82.32 78.88 164.65 78.78 246.97 78.87 288.13 78.92 329.29 79.07 288.13 79.21 246.97 79.26 164.65 79.36 82.32 79.26 0 79.07"/></g><line x1="321.66" x2="321.66" y2="82.14"/><path class="cls-5" d="M321.66,0q.16,10.26.23,20.53L322,41.07l-.07,20.53q-.06,10.27-.23,20.54-.15-10.27-.22-20.54l-.07-20.53.07-20.54Q321.5,10.27,321.66,0Z"/><g class="cls-6"><g class="cls-7"><line x1="109.07" x2="109.07" y2="82.14"/><path class="cls-5" d="M109.07,0q.17,10.26.23,20.53l.07,20.54L109.3,61.6q-.06,10.27-.23,20.54-.16-10.27-.22-20.54l-.07-20.53.07-20.54Q108.91,10.27,109.07,0Z"/></g><g class="cls-8"><line x1="154.84" x2="154.84" y2="82.14"/><path class="cls-5" d="M154.84,0q.16,10.26.23,20.53l.07,20.54-.07,20.53q-.06,10.27-.23,20.54-.15-10.27-.22-20.54l-.07-20.53.07-20.54Q154.68,10.27,154.84,0Z"/></g><g class="cls-7"><line x1="202.65" x2="202.65" y2="82.14"/><path class="cls-5" d="M202.65,0q.16,10.26.23,20.53L203,41.07l-.07,20.53q-.06,10.27-.23,20.54-.15-10.27-.22-20.54l-.07-20.53.07-20.54Q202.49,10.27,202.65,0Z"/></g><g class="cls-7"><line x1="217.66" x2="217.66" y2="82.14"/><path class="cls-5" d="M217.66,0q.17,10.26.23,20.53L218,41.07l-.06,20.53q-.06,10.27-.23,20.54-.16-10.27-.22-20.54l-.07-20.53.07-20.54Q217.5,10.27,217.66,0Z"/></g><g class="cls-7"><line x1="324.74" y1="41.07" x2="202.65" y2="41.07"/><polygon class="cls-5" points="324.74 41.07 309.48 41.17 294.22 41.21 263.7 41.28 233.18 41.21 217.91 41.17 202.65 41.07 217.91 40.97 233.18 40.93 263.7 40.86 294.22 40.93 309.48 40.97 324.74 41.07"/></g><g class="cls-7"><line x1="324.74" y1="49.08" x2="202.65" y2="49.08"/><polygon class="cls-5" points="324.74 49.08 309.48 49.18 294.22 49.22 263.7 49.29 233.18 49.22 217.91 49.18 202.65 49.08 217.91 48.97 233.18 48.93 263.7 48.86 294.22 48.94 309.48 48.97 324.74 49.08"/></g><g class="cls-7"><line x1="63.39" x2="63.39" y2="66.7"/><path class="cls-5" d="M63.39,0q.16,8.34.23,16.68l.06,16.67L63.62,50q-.06,8.34-.23,16.67-.16-8.33-.22-16.67L63.1,33.35l.07-16.67Q63.23,8.34,63.39,0Z"/></g><line x1="14.16" x2="14.16" y2="82.14"/><path class="cls-5" d="M14.16,0q.16,10.26.22,20.53l.07,20.54L14.39,61.6q-.06,10.27-.23,20.54Q14,71.87,13.94,61.6l-.07-20.53.07-20.54Q14,10.27,14.16,0Z"/></g></g></g></svg>